<?xml version="1.0" encoding="utf-8"?>
<!-- Generator: Adobe Illustrator 19.0.0, SVG Export Plug-In . SVG Version: 6.00 Build 0)  -->
<svg version="1.1" id="Layer_1" xmlns="http://www.w3.org/2000/svg" xmlns:xlink="http://www.w3.org/1999/xlink" x="0px" y="0px"
	 viewBox="-566 142.4 283.5 283.5" style="enable-background:new -566 142.4 283.5 283.5;" xml:space="preserve">
<style type="text/css">
	.st0{fill:#70C23D;}
	.st1{fill:#6C4200;}
	.st2{fill:#589CDC;}
	.st3{fill:#DC4730;}
	.st4{fill:#FAF038;}
</style>
<g id="XMLID_271_">
	<g id="XMLID_282_">
		<g id="XMLID_298_">
			<g id="XMLID_299_">
				<path id="XMLID_300_" class="st0" d="M-424.2,283.5l-134.2-43.6c19.3-59.3,71.8-97.5,134.2-97.5V283.5z"/>
			</g>
		</g>
		<g id="XMLID_295_">
			<g id="XMLID_296_">
				<path id="XMLID_297_" class="st1" d="M-424.2,283.5l-82.9,114.1c-50.4-36.6-70.5-98.5-51.3-157.7L-424.2,283.5z"/>
			</g>
		</g>
		<g id="XMLID_292_">
			<g id="XMLID_293_">
				<path id="XMLID_294_" class="st2" d="M-424.2,283.5l82.9,114.1c-50.4,36.6-115.4,36.6-165.9,0L-424.2,283.5z"/>
			</g>
		</g>
		<g id="XMLID_287_">
			<g id="XMLID_290_">
				<path id="XMLID_291_" class="st3" d="M-424.2,283.5l134.2-43.6c19.2,59.3-0.9,121.1-51.3,157.8L-424.2,283.5z"/>
			</g>
		</g>
		<g id="XMLID_283_">
			<g id="XMLID_285_">
				<path id="XMLID_286_" class="st4" d="M-424.2,283.5V142.4c62.3,0,114.9,38.2,134.2,97.5L-424.2,283.5z"/>
			</g>
		</g>
	</g>
	<g id="XMLID_276_">
		<g id="XMLID_281_">
		</g>
		<g id="XMLID_280_">
		</g>
		<g id="XMLID_279_">
		</g>
		<g id="XMLID_278_">
		</g>
		<g id="XMLID_277_">
		</g>
	</g>
</g>
</svg>
